# xmcd
#
# Track frame offsets: 
#        150
#        16773
#        33453
#        47975
#        58930
#        74832
#        85312
#        100002
#        115914
#        130254
#        145898
#        162457
#        179594
#        191258
#        207144
#        224130
#
# Disc length: 3175 seconds
#
# Revision: 0
# Processed by: cddbd v1.5.2PL0 Copyright (c) Steve Scherf et al.
# Submitted via: ExactAudioCopy v1.3
#
DISCID=f70c6510
DTITLE=Various Artist - Beaut Ute Anthems 2013 CD 2
DYEAR=2013
DGENRE=Country
TTITLE0=The Wolfe Brothers - It's On
TTITLE1=Adam Brand - Feel The Fire
TTITLE2=Kip Moore - Somethin' 'Bout A Truck
TTITLE3=Jayne Denman - Renegade
TTITLE4=Doc Walker - Country Girl
TTITLE5=Tim Rodgers - Let's Be Dreadful
TTITLE6=Pistol Annies - Hell On Heels
TTITLE7=Craig Campbell - That's Music To Me
TTITLE8=Blackchords - Dance Dance Dance
TTITLE9=The Pigs - Party Rock Anthem
TTITLE10=The Tiger and Me - Jack Middle Of The Broken Heart
TTITLE11=Matt Cornell - Days To Remember
TTITLE12=Shea Fisher - Freedom
TTITLE13=Liam Drew - Top That Comes Off
TTITLE14=Paul Greene and The Other Colours - Crossfire
TTITLE15=Corey Colum - Hot Out Here
EXTD=
EXTT0=
EXTT1=
EXTT2=
EXTT3=
EXTT4=
EXTT5=
EXTT6=
EXTT7=
EXTT8=
EXTT9=
EXTT10=
EXTT11=
EXTT12=
EXTT13=
EXTT14=
EXTT15=
PLAYORDER=
